<svg width="32" height="32" viewBox="0 0 32 32" fill="none" xmlns="http://www.w3.org/2000/svg">
<path d="M10.7951 9.30799C10.3844 8.89734 9.71865 8.89734 9.30799 9.30799C8.89734 9.71865 8.89734 10.3844 9.30799 10.7951L14.5129 16L9.30799 21.2049C8.89734 21.6156 8.89734 22.2814 9.30799 22.692C9.71865 23.1027 10.3844 23.1027 10.7951 22.692L16 17.4871L21.2049 22.692C21.6156 23.1027 22.2814 23.1027 22.692 22.692C23.1027 22.2814 23.1027 21.6156 22.692 21.2049L17.4871 16L22.692 10.7951C23.1027 10.3844 23.1027 9.71865 22.692 9.30799C22.2814 8.89734 21.6156 8.89734 21.2049 9.30799L16 14.5129L10.7951 9.30799Z" fill="#76767A"/>
</svg>
